<?xml version="1.0" standalone="no"?><svg xmlns="http://www.w3.org/2000/svg" viewBox="0 0 1440 320"><path fill="#ffd700" fill-opacity="1" d="M0,256L14.1,250.7C28.2,245,56,235,85,213.3C112.9,192,141,160,169,144C197.6,128,226,128,254,106.7C282.4,85,311,43,339,69.3C367.1,96,395,192,424,197.3C451.8,203,480,117,508,90.7C536.5,64,565,96,593,128C621.2,160,649,192,678,186.7C705.9,181,734,139,762,133.3C790.6,128,819,160,847,144C875.3,128,904,64,932,58.7C960,53,988,107,1016,106.7C1044.7,107,1073,53,1101,80C1129.4,107,1158,213,1186,245.3C1214.1,277,1242,235,1271,208C1298.8,181,1327,171,1355,186.7C1383.5,203,1412,245,1426,266.7L1440,288L1440,0L1425.9,0C1411.8,0,1384,0,1355,0C1327.1,0,1299,0,1271,0C1242.4,0,1214,0,1186,0C1157.6,0,1129,0,1101,0C1072.9,0,1045,0,1016,0C988.2,0,960,0,932,0C903.5,0,875,0,847,0C818.8,0,791,0,762,0C734.1,0,706,0,678,0C649.4,0,621,0,593,0C564.7,0,536,0,508,0C480,0,452,0,424,0C395.3,0,367,0,339,0C310.6,0,282,0,254,0C225.9,0,198,0,169,0C141.2,0,113,0,85,0C56.5,0,28,0,14,0L0,0Z"></path></svg>